

Lesbian Massage Turns Hardcore!

Today we have two Russian babes, the brunette Dulce and newcomer black-haired Yanie in a hot lesbian massage set that goes from sensual softcore to heated hardcore! Dulce is up first and Yanie helps her out of her clothes, running her hands along her body as she does so. As Dulce gets up on the table, Yanie strips out of her tanktop and skirt and gets down to business. She pours oil on Dulce's back and gives her a sensual massage with her hands and as Dulce slowly gets warmed up, Yanie takes it up a notch and massages with her whole body. When Dulce turns on her back, Yanie continues to massage with her hands and body from her small perky tits down to...

Euro_Girls_On_Girls_Dulce_Yanie.mp4
Format : MPEG-4
Format profile : Base Media / Version 2
Codec ID : mp42
File size : 739 MiB
Duration : 25mn 4s
Overall bit rate : 4 123 Kbps
Encoded date : UTC 2012-10-05 17:22:22
Tagged date : UTC 2012-10-05 18:16:50

Video
ID : 2
Format : AVC
Format/Info : Advanced Video Codec
Format profile : Main@L3.1
Format settings, CABAC : No
Format settings, ReFrames : 2 frames
Format settings, GOP : M=2, N=24
Codec ID : avc1
Codec ID/Info : Advanced Video Coding
Duration : 25mn 4s
Bit rate : 4 011 Kbps
Width : 1 280 pixels
Height : 720 pixels
Display aspect ratio : 16:9
Frame rate mode : Constant
Frame rate : 29.970 fps
Color space : YUV
Chroma subsampling : 4:2:0
Bit depth : 8 bits
Scan type : Progressive
Bits/(Pixel*Frame) : 0.145
Stream size : 719 MiB (97%)
Language : English
Encoded date : UTC 2012-10-05 17:22:22
Tagged date : UTC 2012-10-05 18:16:50
Color primaries : BT.709
Transfer characteristics : BT.709
Matrix coefficients : BT.709

Audio
ID : 1
Format : AAC
Format/Info : Advanced Audio Codec
Format profile : LC
Codec ID : 40
Duration : 25mn 4s
Bit rate mode : Constant
Bit rate : 107 Kbps
Nominal bit rate : 128 Kbps
Channel(s) : 2 channels
Channel positions : Front: L R
Sampling rate : 44.1 KHz
Compression mode : Lossy
Delay relative to video : 33ms
Stream size : 19.2 MiB (3%)
Language : English
Encoded date : UTC 2012-10-05 17:22:22
Tagged date : UTC 2012-10-05 18:16:50